/* XPM */
static char *result[] = {
/* columns rows colors chars-per-pixel */
"50 50 25 1 ",
"  c gray25",
". c #7F632C",
"X c #4B463C",
"o c #544B3A",
"O c #4D473C",
"+ c #524A3B",
"@ c #50493B",
"# c #4F493B",
"$ c #534B3A",
"% c #FFAB03",
"& c #635335",
"* c #7D632D",
"= c #665634",
"- c #765E2F",
"; c #6F5A31",
": c #685734",
"> c #79602E",
", c #625336",
"< c #615336",
"1 c #46433E",
"2 c #4B463D",
"3 c #47443E",
"4 c #49453D",
"5 c #48453D",
"6 c #4A463D",
/* pixels */
"                                                  ",
"                                                  ",
"                                                  ",
"                                                  ",
"                                                  ",
"                                                  ",
"                                                  ",
"                                                  ",
"                                                  ",
"                                                  ",
"                                                  ",
"                                                  ",
"                                                  ",
"                                                  ",
"                                                  ",
"                                                  ",
"                                                  ",
"                                                  ",
"                                                  ",
"                                                  ",
"                                                  ",
"                                                  ",
"                                                  ",
".....X   o.......O   +.......@   #.......O   $....",
"%%%%%&   *%%%%%%%=   -%%%%%%%;   ;%%%%%%%:   >%%%%",
",,,,<1   2,,,,,,,3   4,,,,,,,5   5,,,,,,,3   6,,,,",
"                                                  ",
"                                                  ",
"                                                  ",
"                                                  ",
"                                                  ",
"                                                  ",
"                                                  ",
"                                                  ",
"                                                  ",
"                                                  ",
"                                                  ",
"                                                  ",
"                                                  ",
"                                                  ",
"                                                  ",
"                                                  ",
"                                                  ",
"                                                  ",
"                                                  ",
"                                                  ",
"                                                  ",
"                                                  ",
"                                                  ",
"                                                  "
};
