/* XPM */
static char *result[] = {
/* columns rows colors chars-per-pixel */
"50 50 105 2 ",
"   c #752305",
".  c #792306",
"X  c #72250B",
"o  c #7B2409",
"O  c #762B0F",
"+  c #7C2C0F",
"@  c #752B10",
"#  c #792E12",
"$  c #773011",
"%  c #7A3115",
"&  c #7F3118",
"*  c #7E3A1E",
"=  c #7E3D22",
"-  c #7F4126",
";  c #852B0F",
":  c #882C0F",
">  c #862B11",
",  c #892C12",
"<  c #832F19",
"1  c #863016",
"2  c #843119",
"3  c #80391C",
"4  c #95361A",
"5  c #99371D",
"6  c #96391C",
"7  c #9A391E",
"8  c #833620",
"9  c #813D24",
"0  c #953D23",
"q  c #9B3B20",
"w  c #824126",
"e  c #83452B",
"r  c #85492E",
"t  c #944126",
"y  c #9C4327",
"u  c #97452F",
"i  c #9B452A",
"p  c #9E4A2E",
"a  c #864B31",
"s  c #8A4E34",
"d  c #914F35",
"f  c #9D4E32",
"g  c #865035",
"h  c #8A5237",
"j  c #87553C",
"k  c #8C533A",
"l  c #8E5B3F",
"z  c #93543C",
"x  c #92593F",
"c  c #A04E33",
"v  c #A35A3F",
"b  c #8C5A43",
"n  c #945A43",
"m  c #905E48",
"M  c #A45D44",
"N  c #A65F48",
"B  c #9D6E56",
"V  c #9E7057",
"C  c #9F705A",
"Z  c #A56047",
"A  c #A6644B",
"S  c #A8644D",
"D  c #A9684F",
"F  c #A66751",
"G  c #A96650",
"H  c #A66953",
"J  c #AA6C53",
"K  c #AC6E59",
"L  c #A07057",
"P  c #AB7057",
"I  c #A3765F",
"U  c #AD735C",
"Y  c #B0745E",
"T  c #A27661",
"R  c #AE7761",
"E  c #A57961",
"W  c #AF7B62",
"Q  c #A47D69",
"!  c #A97F6B",
"~  c #B17863",
"^  c #A7816B",
"/  c #AC866D",
"(  c #AA8670",
")  c #AC8B75",
"_  c #AC8E7A",
"`  c #BA8B74",
"'  c #B0947E",
"]  c #BB917B",
"[  c #B49683",
"{  c #B29C85",
"}  c #BD9983",
"|  c #BEA690",
" . c #BDAC97",
".. c #C0A791",
"X. c #C2AA95",
"o. c #C4AF9C",
"O. c #C6B09E",
"+. c #C9B19E",
"@. c #C6B5A3",
"#. c #CAB6A5",
"$. c #C6B9A6",
"%. c #C9BAA7",
"&. c #CAB6A8",
"*. c #C7BAA9",
"=. c #C9BBA9",
/* pixels */
"2 2 < < < < < < 2 2 2 2 2 2 < , < < 2 < 1 1 0 u #.) X # , < 2 1 1 1 1 1 1 1 , < , 1 1 1 < , < < , 2 ",
"< , : ; , , , , > > , , , , , , , , , , : : 4 y &.)   + > > , , : : > > > , > > > > , , > > , > , 2 ",
"> < < ; , , , , > > > < , , , , , , , : : : 4 t @.(   + ; > > > : : : : > > > > > ; > > > > > > < & ",
"  o o ; o o o o . o o   . o . . . . . . .     $ &./     . . o . . . . o . . o o . . . . o o   o   @ ",
"= = 9 9 8 = = = = = = = 9 9 w 9 9 9 w w w e e g @.[ r r r a a a d r s s s s s k k h z k k k k n b b ",
"@.#.#.&.#.#.#.&.$.#.$.$.*.*.*.*.=.&.%.%.=.=.=.=.*.&.&.&.*.=.=.=.=.%.=.=.=.=.=.=.=.*.=.&.=.=.=.=.=.=.",
"U Y R U U K K U K K R @.[ m H J J J J J D D D D F F S S F S G G S S A } O.l z Z M M M M Z M M M M N ",
"5 q q q q q 5 0 q 5 p o.T   4 7 7 7 7 7 q q q 7 q q q q q q q q 7 q 7 `  .$ ; 5 7 6 7 7 7 7 7 7 q 0 ",
", , , , , , , > , 4 i +.E   > > , , , , , , : : > > : > > > > , , , q ` X.# o , , < > , , > , > < < ",
"> , : , > > : : > 4 p +.E   ; > > > , , , , , > > > > : > > > > , , y ` o.# o , , , , , , , , , , < ",
"> ; : > > : > , : 4 p +.T   ; > > > , > > : > > > > , > > > > > : , y ` X.# ; < > > > , > ; > , , < ",
"; > > > : > > > ; 4 p +.T   ; > : : , , , , > > > > , > > : , > : 4 q ` X.# o , , > , , > , > , > < ",
"> > ; > > > > > : 4 f o.I   ; > : > > > > > > > > > > > > > > > , , y ` X.@ . , , , , , > > > > > < ",
"> > > > > > , > ; 4 f o.I   ; > : > > > > > > > > : > > , > > > , , q ` X.O ; , > , , > > > > > , < ",
"; > ; > > > > > : 4 p @.I   ; > > > : > > : > > : > > > > > > > , , q ` X.# . , , > > > > > > > > < ",
"; > > > > > > > : 4 p o.I   ; > > > > > > > > > : : > > > > > > , , y ` ..# . , ; > , > > # > > > < ",
". .   . . . .       * O.I   . . . o o o . . . . . .       . .   . .   / X.$   . . .     o       o X ",
"* 3 3 * * 9 = = = = g O.^ w 9 w 8 8 9 9 w t e e e e r r e r r r r r a ' o.j r g s s s s h s s h k k ",
"=.%.%.&.&.&.$.%.$.%.*.$.$.%.%.%.&.&.&.=.%.%.%.%.%.*.*.=.=.&.%.&.=.%.%.%.$.%.%.%.=.=.%.%.&.=.=.=.=.=.",
"~ ~ ~ ~ R U W Y U U Y U U U U U R K Y Y P P J P #.[ b F J G G J D D D F D A D A A A A Z N N N N N A ",
"4 7 7 q 7 7 7 7 q q q 6 q q 5 5 q q 5 5 5 7 5 y +.Q   4 5 5 7 5 6 5 7 7 5 5 5 5 7 7 7 7 5 7 5 5 q 0 ",
", 1 , , : 1 : , : : , , , , , , , > , : , , 5 y #.Q   ; , , , , > > > , , , , , , > , , > > , > > & ",
"> , , > 1 ; : : : : : , , > , : > > > , , , 5 y &.!   ; , > , , > > > > > > , > > > > , > ; , > < < ",
"> , , > ; ; ; : : : 1 , , > > : > : , , , , 5 y &.!   ; > , , , > > > > > > : , > > > > , , > > > & ",
"> < > > ; > > > > , > > > , > > , > > , > , 6 i &.!   ; ; > > > > > > > > ; > > ; , > > > > > > > < ",
"; > < > > > > > > > : > > > , ; ; , ; ; > , 6 i &.!   ; ; ; > > > > > > , > , ; , , ; > > > > > > < ",
"; > > > > > > > : > > > ; , , > , > > , > > 4 i &.!   ; > ; > > > > > : > , > > > > > > > > : > > 1 ",
"; > > > > > > > > > > > , ; ; , > > > > > > 6 u &.!   ; > > ; > > > : : ; > > > , > > > ; : : ; > < ",
"> : > ; > ; ; ; > > > : ; > , , , > > > : : 4 p %.Q   ; ; : ; ; 1 ; : : : > > > ; > > ; : ; ; 1 > & ",
"  o . . . ; . . . . o . . . o o . o . . o . o % #.E   . . . .     o . . . X   o . . . .   .       X ",
"= * = = = = 8 9 - - - - w e e e e e e r r r r k $._ s h s h a s h h k k k k k k x x n k l x n n b m ",
"*.$.$.$.$.$.&.&.%.*.%.*.*.*.=.=.=.=.=.&.%.=.=.$.*.*.%.=.=.&.&.=.%.=.=.=.=.=.%.%.%.%.=.&.%.%.$.%.=.=.",
"J J K K J J J J J J U @.( k A A N S N N S A A Z Z Z Z Z N N M N M M N } X.k z M M M M M v M v v v n ",
"6 q 7 0 q q q q 5 q c +.L   4 q 5 5 q q 7 5 5 5 7 7 q q 5 5 5 5 7 7 q ] ..@ > 7 7 7 q 5 5 7 7 7 q 0 ",
"< , , , , , : , : 5 f @.C   > , > > > > , , , > , : : , > : > > : 4 q ] | @ ; : > > > : > , , , > 2 ",
"; , , , , , , , , 5 f @.C   ; , > > : : , , ; , > , , : > > > > > , q ] | o . : > > > , , , , , > 2 ",
": , , , , , , , > 5 f @.V   ; > > : > > > , , > ; , > > > > > > > , q ] ..+ ; ; > > ; > ; > , ; > < ",
"> , , , > > , > > 5 f O.B   ; > : > > : > > > > , > > > > > : > , , q ] ..# o : > > > > , > > , > 2 ",
"> > > > > > > , > 5 f @.B   ; ; , > ; , > , > > ; > , > > > > : , , q ] ..O ; > > ; > > ; > > > > 2 ",
"; , > > > > > > > 4 f O.B   ; , : , , > > > > > , > ; , > > > > , , q ] ..O . ; > > > > , , ; , > 2 ",
"; > , > ; > : > > 4 f @.B   ; > > > > > > > > > > > > > > > > > : , q ] ..@ o > > > > : > > > > > 2 ",
"; : : : > > > > : 6 f @.B   ; > > > > > > > > > > > > > > > > > , , 0 ] | @ o < > > > > > > > > > < ",
"  . . . . o o o   . = @.B     .   .         o     . X . . . o . o . X _ | @   o   . . . o     .   @ ",
"= = - = 9 9 9 w w - j @.Q - e e e e e r e r e r r r r r a a a s s g a {  .j g k s k k k k k k k k b ",
"=.&.=.=.=.=.%.&.%.%.%.*.*.*.%.%.%.%.%.%.%.%.=.*.&.&.*.*.&.*.*.=.%.%.=.=.&.*.=.=.=.=.=.&.&.&.&.=.=.=.",
"U U Y U Y U U K U P P P J J J J J J J J J J A U @._ b m n n n n x x z x z z z z n d n d d d d k s k ",
"7 q q q q q q 7 7 7 7 7 7 7 7 7 q 7 q q 7 7 7 u &.U   ; > > > > ; : : : > ; > > > > > > > > < > > & ",
", 1 , , , , , : , , , , , , 1 > > > > , > > 5 i #.T   + ; ; > > > : , : > > > > > > > , > > > , > 2 ",
"> , > > > ; ; ; ; > > > > > ; ; 1 ; > > < > 4 p &.T   ; > > > > > > > > > > > > > > > ; > > , , ; 2 ",
"< , < > 1 1 1 > > > 1 > < & 1 > % 1 1 , < > 6 f &.T X # < , > < 1 1 1 > < > < 1 1 , 1 < 2 , 2 2 , 8 "
};
