/* XPM */
static char *result[] = {
/* columns rows colors chars-per-pixel */
"50 50 252 2 ",
"   c #273B27",
".  c #293E29",
"X  c #2A3F2A",
"o  c #2A402A",
"O  c #2B412B",
"+  c #2D442D",
"@  c #394728",
"#  c #304930",
"$  c #355135",
"%  c #375437",
"&  c #395539",
"*  c #395639",
"=  c #3A583A",
"-  c #3B593B",
";  c #3E5F3E",
":  c #3F603F",
">  c #6E5C1B",
",  c #6C5B1C",
"<  c #7D661C",
"1  c #4E683D",
"2  c #546738",
"3  c #656228",
"4  c #776924",
"5  c #436643",
"6  c #456945",
"7  c #496F49",
"8  c #4C6F4C",
"9  c #4E6D4E",
"0  c #4A704A",
"q  c #4A714A",
"w  c #4B714B",
"e  c #4F774F",
"r  c #4F784F",
"t  c #526E52",
"y  c #507250",
"u  c #547554",
"i  c #567756",
"p  c #507950",
"a  c #517A51",
"s  c #527A52",
"d  c #537E53",
"f  c #577857",
"g  c #577A57",
"h  c #547F54",
"j  c #587858",
"k  c #5B7B5B",
"l  c #5A7D5A",
"z  c #617E61",
"x  c #915D04",
"c  c #986104",
"v  c #9E6504",
"b  c #9F6604",
"n  c #9C6B0C",
"m  c #A77914",
"M  c #897525",
"N  c #C47D05",
"B  c #5D8C5D",
"V  c #5D8D5D",
"C  c #5E8F5E",
"Z  c #6A8348",
"A  c #648364",
"S  c #638464",
"D  c #648864",
"F  c #688668",
"G  c #6A876A",
"H  c #6B886B",
"J  c #698C69",
"K  c #6A8D6B",
"L  c #6B8D6B",
"P  c #6D8F6D",
"I  c #718B65",
"U  c #609160",
"Y  c #629262",
"T  c #639363",
"R  c #669167",
"E  c #659965",
"W  c #679867",
"Q  c #669A66",
"!  c #679C67",
"~  c #679668",
"^  c #699169",
"/  c #689768",
"(  c #69976A",
")  c #6A976A",
"_  c #6B976B",
"`  c #6B916C",
"'  c #6F916F",
"]  c #6E926F",
"[  c #6E966F",
"{  c #689968",
"}  c #699869",
"|  c #6A9E69",
" . c #6A9C6A",
".. c #6B9C6B",
"X. c #6C986C",
"o. c #6C9A6C",
"O. c #6E9F6E",
"+. c #7C9E6C",
"@. c #6F9770",
"#. c #6F9D70",
"$. c #709171",
"%. c #709271",
"&. c #709571",
"*. c #729473",
"=. c #759377",
"-. c #709D70",
";. c #769977",
":. c #779278",
">. c #79927B",
",. c #7B917D",
"<. c #7C927E",
"1. c #7A947C",
"2. c #7C957E",
"3. c #79997B",
"4. c #6BA06A",
"5. c #6EA46D",
"6. c #70A56E",
"7. c #71A66F",
"8. c #72A870",
"9. c #76AD75",
"0. c #78A179",
"q. c #78A279",
"w. c #7CB37A",
"e. c #7CB47A",
"r. c #B0841A",
"t. c #B18F35",
"y. c #CF8506",
"u. c #C3830C",
"i. c #CC8508",
"p. c #D68906",
"a. c #D9B131",
"s. c #E6AF25",
"d. c #8F9948",
"f. c #949052",
"g. c #A08E4E",
"h. c #B69A47",
"j. c #9CB55F",
"k. c #ACBD5D",
"l. c #82977A",
"z. c #84A962",
"x. c #88A87B",
"c. c #95A275",
"v. c #83B779",
"b. c #97BE72",
"n. c #A6BD61",
"m. c #ABB06E",
"M. c #E1B041",
"N. c #E3B448",
"B. c #C2B976",
"V. c #BAC35E",
"C. c #B2CA6C",
"Z. c #F4DA4C",
"A. c #F6DD4E",
"S. c #F3E255",
"D. c #F1E057",
"F. c #F6E355",
"G. c #FFE854",
"H. c #DFDA66",
"J. c #E9CA69",
"K. c #F2D661",
"L. c #FCEC70",
"P. c #7F9E80",
"I. c #809880",
"U. c #819883",
"Y. c #829984",
"T. c #849C86",
"R. c #80A681",
"E. c #81A782",
"W. c #84A086",
"Q. c #86A287",
"!. c #83A684",
"~. c #85A585",
"^. c #84A985",
"/. c #86AC87",
"(. c #89A089",
"). c #88A18A",
"_. c #8DA58D",
"`. c #8FA58F",
"'. c #8BA88C",
"]. c #8CAF8D",
"[. c #93AC87",
"{. c #8DB08F",
"}. c #95A995",
"|. c #94AA94",
" X c #90B290",
".X c #92B493",
"XX c #94B295",
"oX c #96B098",
"OX c #97B299",
"+X c #97B598",
"@X c #99B59B",
"#X c #9EB19E",
"$X c #9AB79C",
"%X c #9EB49E",
"&X c #9CB89E",
"*X c #A6B7A6",
"=X c #A2BCA4",
"-X c #A9BAA9",
";X c #AAB9AC",
":X c #AEBDAE",
">X c #B0BDB1",
",X c #9EC09E",
"<X c #9FC2A0",
"1X c #A1C0A1",
"2X c #A1C3A2",
"3X c #A3C2A4",
"4X c #A7C2A7",
"5X c #A5C4A6",
"6X c #A5C6A6",
"7X c #AEC7AF",
"8X c #AACAAB",
"9X c #ABCBAC",
"0X c #ADCCAE",
"qX c #B0C6B1",
"wX c #B5C3B5",
"eX c #B6C5B6",
"rX c #B5C7B7",
"tX c #B4C9B5",
"yX c #B8C7B8",
"uX c #BBC7BB",
"iX c #B7CDB8",
"pX c #BBCABB",
"aX c #B8CCB9",
"sX c #BCC9BC",
"dX c #B8D0B8",
"fX c #BCD1BC",
"gX c #D3CC86",
"hX c #EEDB83",
"jX c #F7F296",
"kX c #F7F39A",
"lX c #F7F39D",
"zX c #DDE1A2",
"xX c #F5F5AB",
"cX c #C0CDC0",
"vX c #C1D1C2",
"bX c #C2D3C3",
"nX c #C1D6C1",
"mX c #C3D6C3",
"MX c #C4D4C5",
"NX c #C4D5C5",
"BX c #CCD5C6",
"VX c #CBD5CB",
"CX c #C9D6CA",
"ZX c #CED7CE",
"AX c #D2DED2",
"SX c #D4E0D5",
"DX c #DAE1DA",
"FX c #DCE6DC",
"GX c #EBF1EC",
"HX c #F0F3F0",
"JX c #FBFCFB",
"KX c None",
/* pixels */
"KXKXKXKXKXKXKXKXKXKXKXKXKXKXKXKXKXKXKXKXKXKXKXKXKXKXKXKXKXKXKXKXKXKXKXKXKXKXKXKXKXKXKXKXKXKXKXKXKXKX",
"KXKXKXKXKXKXKXKXKXKXKXKXKXKXKXKXKXKXKXKXKXKXKXKXKXKXKXKXKXKXKXKXKXKXKXKXKXKXKXKXKXKXKXKXKXKXKXKXKXKX",
"KXKXKXKXKXKXKXKXKXKXKXKXKXKXKXKXKXKXKXKXKXKXKXKXKXKXKXKXKXKXKXKXKXKXKXKXKXKXKXKXKXKXKXKXKXKXKXKXKXKX",
"KXKXKXKXKXKXKXKXKXKXKXKXKXKXKXKXKXKXKXKXKXKXKXKXKXKXKXKXKXKXKXKXKXKXKXKXKXKXKXKXKXKXKXKXKXKXKXKXKXKX",
"KXKXKXKXKXKXKXKXKXKXKXKXKXKXKXKXKXKXKXKXKXKXKXKXKXKXKXKXKXKXKXKXKXKXKXKXKXKXKXKXKXKXKXKXKXKXKXKXKXKX",
"KXKXKXKXKXKXKXKXKXKXKXKXKXKXKXKXKXKXKXKXKXKXKXKXKXKXKXKXKXKXKXKXKXKXKXKXKXKXKXKXKXKXKXKXKXKXKXKXKXKX",
"KXKXKXKXKXKXKXKXKXKXKXKXKXKXKXKXKXKXKXKXKXKXKXKXKXKXKXKXKXKXKXKXKXKXKXKXKXKXKXKXKXKXKXKXKXKXKXKXKXKX",
"KXKXKXKXKXKXKXKXKXKXKXKXKXKXKXKXKXKXKXKXKXKXKXKXKXKXKXKXKXKXKXKXKXKXKXKXKXKXKXKXKXKXKXKXKXKXKXKXKXKX",
"KXKXKXKXKXKXKXKXKXKXKXKXKXKXKXKXKXKXKXKXKXKXKXKXKXKXKXKXKXKXKXKXKXKXKXKXKXKXKXKXKXKXKXKXKXKXKXKXKXKX",
"KXKXKXKXKXKXKXKXKXKXKXKXKXKXKXKXKXKXKXKXKXKXKXKXKXKXKXKXKXKXKXKXKXKXKXKXKXKXKXKXKXKXKXKXKXKXKXKXKXKX",
"KXKXKXKXKXKXKXKXKXKXKXKXKXKXKXKXKXKXKXKXKXKXKXKXKXKXKXKXKXKXKXKXKXKXKXKXKXKXKXKXKXKXKXKXKXKXKXKXKXKX",
"KXKXKXKXKXKXKXKXKXKXKXKXKXKXKXKXKXKXKXKXKXKXKXKXKXKXKXKXKXKXKXKXKXKXKXKXKXKXKXKXKXKXKXKXKXKXKXKXKXKX",
"KXKXKXKXKXKXKXKXKXKXKXKXKXKXKXKXKXKXKXKXKXKXKXKXKXKXKXKXKXKXKXKXKXKXKXKXKXKXKXKXKXKXKXKXKXKXKXKXKXKX",
"KXKXKXKXKXKXKXKXKXKXKXKXKXKXKXKXKXKXKXKXKXKXKXKXKXKXKXKXKXKX6 6 KXKXKXKXKXKXKXKXKXKXKXKXKXKXKXKXKXKX",
"KXKXKXKXKXKXKXKXKXKXKXKXKXKXKXKXKXKXKXKXKXKXKXKXKXKXKXKXKXI.wX*X6 6 KXKXKXKXKXKXKXKXKXKXKXKXKXKXKXKX",
"KXKXKXKXKXKXKXKXKXKXKXKXKXKXKXKXKXKXKXKXKXKXKXKXKXKXKXKX}.pXMXvXwX:Xi 6 KXKXKXKXKXKXKXKXKXKXKXKXKXKX",
"KXKXKXKXKXKXKXKXKXKXKXKXKXKXKXKXKXKXKXKXKXKXKXKXKXKXKXI.pXiX/..XnXfX|.`.H KXKXKXKXKXKXKXKXKXKXKXKXKX",
"KXKXKXKXKXKXKXKXKXKXKXKXKXKXKXKXKXKXKXKXKXKXKXKXKXKX(.pXtX/.| 7.7.O.dXnX%X`.I.KXKXKXKXKXKXKXKXKXKXKX",
"KXKXKXKXKXKXKXKXKXKXKXKXKXKXKXKXKXKXKXKXKXKXKXKXZ Z BXrX@X/.5.e.e.4.4.Q mXGXyXG F KXKXKXKXKXKXKXKXKX",
"KXKXKXKXKXKXKXKXKXKXKXKXKXKXKXKXKXKXKXKXKXKXm m G.G.m.c.[.E.( } E w.w.| ].&XNXHXsX6 6 KXKXKXKXKXKXKX",
"KXKXKXKXKXKXKXKXKXKXKXKXKXKXKXKXKXKXKXKXn r.G.G.G.G.G.G.k.+.l.=.W {  ...{.=XbX-X6 6 KXKXKXKXKXKXKXKX",
"KXKXKXKXKXKXKXKXKXKXKXKXKXKXKXKXKX6 6 d.Z.A.G.G.G.G.G.G.F.D.V._ >.2.XX+X$XAXeXy 6 6 KXKXKXKXKXKXKXKX",
"KXKXKXKXKXKXKXKXKXKXKXKXKXKX6 6 6 P.'.x.z.j.G.G.G.G.G.G.G.G.S.H.zX<.U.OXSX#Xk 6 6 6 KXKXKXKXKXKXKXKX",
"KXKXKXKXKXKXKXKXKXKXKX6 6 f ZX'.'.T.Y.;.5.v.b.z.G.G.G.G.G.L.kXlXxXoXoXS A u 6 6 6 6 KXKXKXKXKXKXKXKX",
"KXKXKXKXKXKXKXKXKX6 I.wXwXeXbX0.0.1.,.*.| 7.8.9.C.n.a.s.K.jXxXxXxXh.I 8 6 6 6 6 6 KXKXKXKXKXKXKXKXKX",
"KXKXKXKXKXKXKXKX6 e P `.*XJXFX^.~ ^ ` ] *.&.! 7.6.! f.g.gXxXhXN.N.i.< 1 6 6 6 6 KXKXKXKXKXKXKXKXKXKX",
"KXKXKXKXKXKXKXKXKXa d p D wXwXMX4XR.) R $.%.[ [ @.q.Q.).B.J.M.p.p.y.c 2 6 6 6 KXKXKXKXKXKXKXKXKXKXKX",
"KXKXKXKXKXKXKXKXKX6 p U B p p wXwXvX7X X0.!.>X>X;XW.3.3.t.p.p.p.p.y.c 2 6 6 KXKXKXKXKXKXKXKXKXKXKXKX",
"KXKXKXKXKXKXKXKXKX6 p U T #.#.q g cXDXCXqXaXDXDXVXz 5 5 M u.p.p.p.y.c 2 6 KXKXKXKXKXKXKXKXKXKXKXKXKX",
"KXKXKXKXKXKXKXKXKX0 d U o.,X,X-.2XK l _.DXuX: : ; * = - & 4 p.p.p.N c 2 KXKXKXKXKXKXKXKXKXKXKXKXKXKX",
"KXKXKXKXKXKXKXKX6 h C U Y / / 6X9X5X3X~.j 9 o o X . % - # > p.p.p.c KXKXKXKXKXKXKXKXKXKXKXKXKXKXKXKX",
"KXKXKXKXKXKXKXKX6 6 r V X.6X6X/ <X0X0X:.              . o , y.N x KXKXKXKXKXKXKXKXKXKXKXKXKXKXKXKXKX",
"KXKXKXKXKXKXKXKXKXKX7 w s -.-.,X8X0X0X:.              $ : 3 b v KXKXKXKXKXKXKXKXKXKXKXKXKXKXKXKXKXKX",
"KXKXKXKXKXKXKXKXKXKXKXKXKXq q #.2X0X0X:.              O + @ KXKXKXKXKXKXKXKXKXKXKXKXKXKXKXKXKXKXKXKX",
"KXKXKXKXKXKXKXKXKXKXKXKXKXKXKXp J 1X0X:.                KXKXKXKXKXKXKXKXKXKXKXKXKXKXKXKXKXKXKXKXKXKX",
"KXKXKXKXKXKXKXKXKXKXKXKXKXKXKXKXKXL ' t             KXKXKXKXKXKXKXKXKXKXKXKXKXKXKXKXKXKXKXKXKXKXKXKX",
"KXKXKXKXKXKXKXKXKXKXKXKXKXKXKXKXKXKX6 $           KXKXKXKXKXKXKXKXKXKXKXKXKXKXKXKXKXKXKXKXKXKXKXKXKX",
"KXKXKXKXKXKXKXKXKXKXKXKXKXKXKXKXKXKXKXKX    KXKXKXKXKXKXKXKXKXKXKXKXKXKXKXKXKXKXKXKXKXKXKXKXKXKXKXKX",
"KXKXKXKXKXKXKXKXKXKXKXKXKXKXKXKXKXKXKXKXKXKXKXKXKXKXKXKXKXKXKXKXKXKXKXKXKXKXKXKXKXKXKXKXKXKXKXKXKXKX",
"KXKXKXKXKXKXKXKXKXKXKXKXKXKXKXKXKXKXKXKXKXKXKXKXKXKXKXKXKXKXKXKXKXKXKXKXKXKXKXKXKXKXKXKXKXKXKXKXKXKX",
"KXKXKXKXKXKXKXKXKXKXKXKXKXKXKXKXKXKXKXKXKXKXKXKXKXKXKXKXKXKXKXKXKXKXKXKXKXKXKXKXKXKXKXKXKXKXKXKXKXKX",
"KXKXKXKXKXKXKXKXKXKXKXKXKXKXKXKXKXKXKXKXKXKXKXKXKXKXKXKXKXKXKXKXKXKXKXKXKXKXKXKXKXKXKXKXKXKXKXKXKXKX",
"KXKXKXKXKXKXKXKXKXKXKXKXKXKXKXKXKXKXKXKXKXKXKXKXKXKXKXKXKXKXKXKXKXKXKXKXKXKXKXKXKXKXKXKXKXKXKXKXKXKX",
"KXKXKXKXKXKXKXKXKXKXKXKXKXKXKXKXKXKXKXKXKXKXKXKXKXKXKXKXKXKXKXKXKXKXKXKXKXKXKXKXKXKXKXKXKXKXKXKXKXKX",
"KXKXKXKXKXKXKXKXKXKXKXKXKXKXKXKXKXKXKXKXKXKXKXKXKXKXKXKXKXKXKXKXKXKXKXKXKXKXKXKXKXKXKXKXKXKXKXKXKXKX",
"KXKXKXKXKXKXKXKXKXKXKXKXKXKXKXKXKXKXKXKXKXKXKXKXKXKXKXKXKXKXKXKXKXKXKXKXKXKXKXKXKXKXKXKXKXKXKXKXKXKX",
"KXKXKXKXKXKXKXKXKXKXKXKXKXKXKXKXKXKXKXKXKXKXKXKXKXKXKXKXKXKXKXKXKXKXKXKXKXKXKXKXKXKXKXKXKXKXKXKXKXKX",
"KXKXKXKXKXKXKXKXKXKXKXKXKXKXKXKXKXKXKXKXKXKXKXKXKXKXKXKXKXKXKXKXKXKXKXKXKXKXKXKXKXKXKXKXKXKXKXKXKXKX",
"KXKXKXKXKXKXKXKXKXKXKXKXKXKXKXKXKXKXKXKXKXKXKXKXKXKXKXKXKXKXKXKXKXKXKXKXKXKXKXKXKXKXKXKXKXKXKXKXKXKX",
"KXKXKXKXKXKXKXKXKXKXKXKXKXKXKXKXKXKXKXKXKXKXKXKXKXKXKXKXKXKXKXKXKXKXKXKXKXKXKXKXKXKXKXKXKXKXKXKXKXKX"
};
