/* XPM */
static char *result[] = {
/* columns rows colors chars-per-pixel */
"50 50 153 2 ",
"   c #020202",
".  c #0A0807",
"X  c #05050A",
"o  c #0D0D0D",
"O  c #060805",
"+  c #120F0C",
"@  c #15100C",
"#  c #18110D",
"$  c #0B0F17",
"%  c #080D19",
"&  c #060A14",
"*  c #121212",
"=  c #1A1612",
"-  c #1E1811",
";  c #1A1A1A",
":  c #21170F",
">  c #241A11",
",  c #291F14",
"<  c #211E1C",
"1  c #032404",
"2  c #062E07",
"3  c #0A240A",
"4  c #063406",
"5  c #053B06",
"6  c #063108",
"7  c #0A3D0A",
"8  c #0A360A",
"9  c #14300D",
"0  c #102211",
"q  c #2E2116",
"w  c #2B241E",
"e  c #292D14",
"r  c #312317",
"t  c #352618",
"y  c #372819",
"u  c #3C2C1D",
"i  c #2A3216",
"p  c #0D1324",
"a  c #191E28",
"s  c #111B34",
"d  c #1F2636",
"f  c #113037",
"g  c #262626",
"h  c #2E2E2E",
"j  c #3E2F21",
"k  c #2D3035",
"l  c #353535",
"z  c #3A3A3A",
"x  c #422F1E",
"c  c #44301E",
"v  c #4B351F",
"b  c #4D3621",
"n  c #4E3923",
"m  c #443528",
"M  c #483829",
"N  c #443324",
"B  c #543C23",
"V  c #593E25",
"C  c #503D2A",
"Z  c #044204",
"A  c #094409",
"S  c #064C07",
"D  c #065207",
"F  c #085A08",
"G  c #0B560B",
"H  c #066507",
"J  c #026C04",
"K  c #027403",
"L  c #037B03",
"P  c #0D7E0E",
"I  c #234624",
"U  c #5A4026",
"Y  c #624527",
"T  c #624528",
"R  c #65482A",
"E  c #684A2F",
"W  c #152344",
"Q  c #192541",
"!  c #18264B",
"~  c #16284E",
"^  c #2E3546",
"/  c #323A4B",
"(  c #1D3668",
")  c #1F3C73",
"_  c #223A6D",
"`  c #213C72",
"'  c #223E79",
"]  c #1C5C67",
"[  c #24427E",
"{  c #4B5B4B",
"}  c #5A5857",
"|  c #625D55",
" . c #4F724F",
".. c #796148",
"X. c #67625E",
"o. c #676667",
"O. c #696866",
"+. c #6C6D6C",
"@. c #747474",
"#. c gray49",
"$. c #88725B",
"%. c #877360",
"&. c #8E7A64",
"*. c #8C7E6C",
"=. c #008001",
"-. c #1D8D1D",
";. c #238F23",
":. c #2D952E",
">. c #249225",
",. c #388338",
"<. c #3F9C3F",
"1. c #4BA44C",
"2. c #54A555",
"3. c #5FAC5F",
"4. c #61AD60",
"5. c #6CAD69",
"6. c #6AB06A",
"7. c #77B777",
"8. c #7DBD7E",
"9. c #8F857B",
"0. c #978572",
"q. c #968A7C",
"w. c #264584",
"e. c #264688",
"r. c #274A8E",
"t. c #274C93",
"y. c #284B91",
"u. c #848280",
"i. c gray55",
"p. c #9F958A",
"a. c #9B9B9B",
"s. c #A89989",
"d. c #A69E96",
"f. c #A4A29F",
"g. c #B0A596",
"h. c #B4A79A",
"j. c #A5B496",
"k. c #A7A7A7",
"l. c #BEB7AA",
"z. c #C2B8AD",
"x. c #93C793",
"c. c #A0CCA0",
"v. c #A8D1A7",
"b. c #A7D1A8",
"n. c #B5D9B5",
"m. c #CDCDCD",
"M. c #DCDAD6",
"N. c #E8E3DF",
"B. c gray92",
"V. c #E7E5E3",
"C. c #F7FAF7",
"Z. c #FFFFFE",
"A. c None",
/* pixels */
"A.A.A.A.A.A.A.A.A.A.A.A.A.A.A.A.A.A.                                A.A.A.A.A.A.A.A.A.A.A.A.A.A.A.A.",
"A.A.A.A.A.A.A.A.A.A.A.A.A.A.A.A.  . . o o o . o . . o o . o o . & .   A.A.A.A.A.A.A.A.A.A.A.A.A.A.A.",
"A.A.A.A.A.A.A.A.A.A.A.A.A.A.A.A.    $ o o o o o o o o o o $ o o o .   ; A.A.A.A.A.A.A.A.A.A.A.A.A.A.",
"A.A.A.A.A.A.A.A.A.A.A.A.A.A.    . o o o o * o o o o * o + o o o o o o o   A.A.A.A.A.A.A.A.A.A.A.A.A.",
"A.A.A.A.A.A.A.A.A.A.A.A.A.A.    o o o o o * * o * o o o o o o @ o o o .   A.A.A.A.A.A.A.A.A.A.A.A.A.",
"A.A.A.A.A.A.A.A.A.A.A.A.A.A.    o @ o o o o o o o o o o o o o o o o o .   A.A.A.A.A.A.A.A.A.A.A.A.A.",
"A.A.A.A.A.A.A.A.A.A.A.A.A.A.    o o o o o o o o o o o @ o o o o @ o o .   A.A.A.A.A.A.A.A.A.A.A.A.A.",
"A.A.A.A.A.A.A.A.A.A.A.A.A.A.    k h l h l h h h l k h h h h l k h h k *   A.A.A.A.A.A.A.A.A.A.A.A.A.",
"A.A.A.A.A.A.A.A.A.A.A.A.A.A.    l l l l l l l l l l l l l l l l l l l ;   A.A.A.A.A.A.A.A.A.A.A.A.A.",
"A.A.A.A.A.A.A.A.A.A.        o o o * * o * o @ @ * o o * * * o * * o * o o .       A.A.A.A.A.A.A.A.A.",
"A.A.A.A.A.A.A.A.A.A.        o o o o o o $ o o $ o o o o o o o o o o o o o .       A.A.A.A.A.A.A.A.A.",
"A.A.A.A.A.A.A.A.A.A.    o o o o * o @ o o o o o o o o * o o * o o @ o o o o o X   A.A.A.A.A.A.A.A.A.",
"A.A.A.A.A.A.A.A.A.A.    o o o o o $ @ @ + + * * o o + & * * * @ * o $ + o o *     A.A.A.A.A.A.A.A.A.",
"A.A.A.A.A.A.A.A.A.A.A.A.        o @ U U o # T n ; ; ; ; ; j U N ; ; ; o       A.A.A.A.A.A.A.A.A.A.A.",
"A.A.A.A.A.A.A.A.A.A.A.A.* o     o o U n $ - U n l h ; ; ; j U j * g l ;   O o A.A.A.A.A.A.A.A.A.A.A.",
"A.A.A.A.A.A.A.A.A.A.A.A.A.A.    . o ; w ; ; < } B.a.      = 0 =   @.B.+.  A.A.A.A.A.A.A.A.A.A.A.A.A.",
"A.A.A.A.A.A.A.A.A.A.A.A.A.A.    o o w w w w w O.Z.k.      # w =   #.Z.@.  A.A.A.A.A.A.A.A.A.A.A.A.A.",
"A.A.A.A.A.A.A.A.A.A.A.A.A.A.    . o U T Y Y U &.Z.k.      , U y   #.Z.@.  A.A.A.A.A.A.A.A.A.A.A.A.A.",
"A.A.A.A.A.A.A.A.A.A.A.A.A.A.O   . @ R Y T Y Y $.N.f.g g g N R M g u.N.O.  A.A.A.A.A.A.A.A.A.A.A.A.A.",
"A.A.A.A.A.A.A.A.A.A.A.A.A.A.A.A.  . T Y Y Y Y Y Y 0.Z.Z.Z.g.Y s.Z.g.Y r   A.A.A.A.A.A.A.A.A.A.A.A.A.",
"A.A.A.A.A.A.A.A.A.A.A.A.A.A.A.A.  . B B Y Y Y Y U %.m.m.m.9.n *.M.q.b >   A.A.A.A.A.A.A.A.A.A.A.A.A.",
"A.A.A.A.A.A.A.A.A.A.A.A.              . Y Y Y Y T c o . . o . r Y t       A.A.A.A.A.A.A.A.A.A.A.A.A.",
"A.A.A.A.A.A.A.A.A.A.A.A.3 1 1 1 1 1 1 3 v b Y V n u > > ; > > r v e 1 1 1 0 A.A.A.A.A.A.A.A.A.A.A.A.",
"A.A.A.A.A.A.A.A.A.A.  O L =.=.=.L =.=.K   # Y b . q Y Y Y T T u . A =.=.L 2   A.A.A.A.A.A.A.A.A.A.A.",
"A.A.A.A.A.A.A.A.A.A.6 8 L =.L =.=.=.=.L 6 9 u r O = x x x x x i 8 F =.=.=.S 4 3 A.A.A.A.A.A.A.A.A.A.",
"A.A.A.A.A.A.A.A.  X K L =.=.=.=.=.=.=.=.=.H       O . o o X . 7 =.=.=.=.=.=.=.1   A.A.A.A.A.A.A.A.A.",
"A.A.A.A.A.A.A.A.o.+.=.=.=.=.=.=.=.L =.=.=.J 5 I +.{ 7 7 7 A 7 F =.=.=.=.=.=.=. .+.l A.A.A.A.A.A.A.A.",
"A.A.A.A.A.A.    M.C.;.L =.=.=.=.=.=.=.=.=.=.=.1.Z.b.=.=.=.=.=.=.=.=.=.L =.=.=.n.Z.z   A.A.A.A.A.A.A.",
"A.A.A.A.A.A.    d.l.5.4.3.2.G F L L L L K L L :.c.6.=.=.L K L K L H D ,.4.4.4.j.z.g   A.A.A.A.A.A.A.",
"A.A.A.A.A.A.O   B E V.Z.Z.V.*   J J J J J K =.=.=.=.=.L J J J J J 5   i.Z.Z.Z.&.U #   A.A.A.A.A.A.A.",
"A.A.A.A.A.A.    B R s.h.h.p..   K K K K K L =.;.7.2.=.L K K K K K 5   | g.h.h...Y #   A.A.A.A.A.A.A.",
"A.A.A.A.A.A.    B T R Y Y B .   L =.L L =.=.=.1.Z.b.=.=.=.=.=.=.=.Z   t Y Y Y Y Y +   A.A.A.A.A.A.A.",
"A.A.A.A.A.A.    B T Y Y Y V O   =.=.=.=.=.=.=.>.8.2.=.=.=.=.=.=.=.Z   y Y Y Y Y Y #   A.A.A.A.A.A.A.",
"A.A.A.A.A.A.    B T Y Y Y V O   L =.=.=.=.=.=.=.=.=.=.=.=.=.=.=.=.Z   t Y Y Y Y Y #   A.A.A.A.A.A.A.",
"A.A.A.A.A.A.    B Y Y Y Y V O   P =.=.=.=.=.=.:.x.4.=.=.=.=.=.=.=.Z   t Y Y Y Y Y @   A.A.A.A.A.A.A.",
"A.A.A.A.A.A.    B Y Y Y Y V O   =.=.=.=.=.=.=.1.Z.v.=.=.=.=.=.=.=.Z   y Y Y Y Y Y @   A.A.A.A.A.A.A.",
"A.A.A.A.A.A.A.A.: > > > > :     =.=.=.=.=.=.=.-.4.<.=.=.=.=.=.=.=.Z   + > > > > > # A.A.A.A.A.A.A.A.",
"A.A.A.A.A.A.A.A.                =.=.=.=.=.=.=.L =.L =.=.=.=.=.=.=.Z               A.A.A.A.A.A.A.A.A.",
"A.A.A.A.A.A.A.A.A.A.A.A.A.A.    ] ] ] ] ] ] ] ] ] ] ] ] ] ] ] ] ] f   ; A.A.A.A.A.A.A.A.A.A.A.A.A.A.",
"A.A.A.A.A.A.A.A.A.A.A.A.A.A.  X y.t.t.t.t.t.t.t.t.t.t.t.t.t.t.t.t.~   ; A.A.A.A.A.A.A.A.A.A.A.A.A.A.",
"A.A.A.A.A.A.A.A.A.A.A.A.X $ _ ` t.t.t.t.t.t.y.) p ! t.t.t.t.t.t.t.w.` Q   A.A.A.A.A.A.A.A.A.A.A.A.A.",
"A.A.A.A.A.A.A.A.A.A.A.A.  % r.t.t.t.t.t.t.t.y._   s t.t.t.t.t.t.t.t.t.W   A.A.A.A.A.A.A.A.A.A.A.A.A.",
"A.A.A.A.A.A.A.A.A.A.  X ` [ y.t.t.t.t.t.t.' $ % A.A.% W t.t.t.t.t.t.t.e.[ s   A.A.A.A.A.A.A.A.A.A.A.",
"A.A.A.A.A.A.A.A.A.A.  o e.r.y.y.y.r.y.t.r.`     A.A.  s r.r.y.t.y.t.y.y.t.s   A.A.A.A.A.A.A.A.A.A.A.",
"A.A.A.A.A.A..     . g h / / / / / / / ^ p p A.A.A.A.A.a p d / / / / / / / l h *       A.A.A.A.A.A.A.",
"A.A.A.A.A.A.O     O h l l l l l l l l h O   A.A.A.A.A.A.  ; l l l l l l l l l o       A.A.A.A.A.A.A.",
"A.A.A.A.* . g h h h l l l l l l l l l h     A.A.A.A.A.A.  ; l l l l l l l l l h k h h * . A.A.A.A.A.",
"A.A.A.A..   h l l l l l l l l l l l l l     A.A.A.A.A.A.  ; l l l l l l l l l l l l l o   A.A.A.A.A.",
"A.A.A.A.o                         .         A.A.A.A.A.A.        X                     O   A.A.A.A.A.",
"A.A.A.A.o                                   A.A.A.A.A.A.                                  A.A.A.A.A."
};
